<svg width="640" height="480" xmlns="http://www.w3.org/2000/svg" xmlns:xlink="http://www.w3.org/1999/xlink">
 <!-- Created with SVG-edit - http://svg-edit.googlecode.com/ -->
 <g>
  <title>Layer 1</title>
  <g id="svg_31"/>
  <g id="svg_32"/>
  <g id="svg_33"/>
  <g id="svg_34"/>
  <g id="svg_35"/>
  <g id="svg_36"/>
  <g id="svg_37"/>
  <g id="svg_38"/>
  <g id="svg_39"/>
  <g id="svg_40"/>
  <g id="svg_41"/>
  <g id="svg_42"/>
  <g id="svg_43"/>
  <g id="svg_44"/>
  <g id="svg_45"/>
  <a id="svg_54" xlink:href="http://">
   <g transform="rotate(156.565 133 152)" id="svg_23">
    <g transform="matrix(0.828835 0 0 0.828835 0 0)" id="svg_5">
     <g id="svg_6">
      <path fill="#007f00" stroke="#000000" id="svg_7" d="m233.23102,175.99803c-6.80098,-1.759 -15.09299,-0.61101 -22.069,-0.49901c-8.44499,0.136 -17.041,0.60698 -25.33499,2.364c-0.006,-0.009 0.00099,-0.01799 -0.006,-0.02699c-0.07202,-0.095 -0.15602,-0.17801 -0.229,-0.27301c-0.862,-12.00299 -1.05199,-24.00899 -1.09801,-36.01599c0.02501,-0.08501 0.01601,-0.16301 -0.00099,-0.25499c-0.062,-17.23299 0.17102,-34.467 -0.81099,-51.6926c-0.013,-0.228 -0.14601,-0.35201 -0.23999,-0.514c-0.166,-0.729 -0.71101,-1.342 -1.68701,-1.308c-15.90799,0.561 -31.81,-0.561 -47.71301,-0.202c-0.56099,-1.09499 -2.45798,-0.922 -2.577,0.299c-0.772,0.517 -0.70398,1.667 0.174,2.084c2.52101,21.5086 -0.71799,43.31461 -0.364,64.8466c-0.181,0.09001 -0.26198,0.37999 -0.043,0.53798c0.01802,0.013 0.03401,0.02702 0.052,0.04002c0.15799,8.10201 0.82199,16.16498 2.528,24.15601c-0.106,-0.02701 -0.14798,-0.114 -0.26802,-0.12401c-0.16698,-0.01399 -0.33899,-0.037 -0.50801,-0.05299c-0.00499,-0.004 -0.00899,-0.00899 -0.01401,-0.01401c-0.036,-0.034 -0.06798,0.013 -0.10799,0.00102c-14.30502,-1.35002 -31.62931,-7.34802 -45.65231,-2.78802c-0.62601,0.203 -0.826,0.94702 -0.37901,1.43301c0.064,0.069 0.128,0.13901 0.19099,0.20801c0.111,0.121 0.26801,0.17999 0.43,0.194c-0.169,0.239 -0.258,0.53101 -0.062,0.879c19.8363,35.17401 45.99129,69.93503 72.95129,100.06702c0.85701,0.957 2.00699,0.52902 2.55501,-0.30798c21.27499,-14.17099 32.078,-37.13899 45.95099,-57.79199c8.64899,-12.87901 19.50301,-27.64299 25.256,-42.054c0.15599,-0.39099 0.052,-0.71599 -0.133,-0.998c0.47501,-0.75099 0.21599,-1.931 -0.791,-2.192l0.00003,-0.00002l0.00002,-0.00003l0.00002,-0.00002zm-95.71599,-55.19001c0.05499,-2.605 0.06299,-5.202 0.00601,-7.78699c11.53198,15.40001 29.57401,25.526 43.21599,38.99699c0.082,2.77 0.108,5.543 0.243,8.30902c-12.05098,-15.009 -29.086,-26.75 -43.465,-39.519l0,-0.00002zm43.55498,41.637c0.04002,0.746 0.10704,1.49001 0.151,2.23601c-11.51398,-14.39801 -29.92798,-24.20099 -43.76598,-35.81598c-0.08502,-0.07101 -0.177,-0.08 -0.26701,-0.08601c0.112,-2.25301 0.248,-4.51099 0.308,-6.755c14.22801,13.71201 28.87701,27.257 43.57402,40.42101l-0.00003,0l0,-0.00003zm-16.37198,-26.80499c-9.569,-7.30298 -19.808,-14.28201 -27.20099,-23.93999c-0.01199,-0.015 -0.03001,-0.012 -0.04199,-0.025c-0.05501,-1.794 -0.14302,-3.583 -0.26802,-5.364c12.41499,15.054 27.698,27.76801 43.42999,39.243c0.02101,1.291 0.01401,2.58298 0.045,3.87299c-4.043,-5.53899 -10.724,-9.78699 -15.96399,-13.78699l0,-0.00003l0,0.00002zm15.87599,3.821c0.01001,1.321 -0.00099,2.642 0.017,3.96301c-15.37399,-11.834 -30.33499,-23.966 -43.51099,-38.26001c-0.17201,-2.15701 -0.43301,-4.2986 -0.73201,-6.43259c12.23201,15.71159 28.93201,28.0246 44.226,40.72961l0,-0.00003l0,0.00002zm-44.308,-41.44859c-0.30099,-2.036 -0.72801,-4.049 -1.175,-6.05801c9.42601,8.73801 19.686,16.5056 28.89401,25.4906c4.23299,4.132 8.85399,8.077 13.39999,11.86401c1.082,0.901 1.99399,2.401 3.213,3.22798c-0.002,1.511 -0.041,3.022 -0.034,4.53201c-13.938,-13.86401 -31.49902,-23.81701 -44.298,-39.05659zm0.877,31.7486c14.36,13.01201 30.42601,23.614 44.23802,37.267c0.131,1.99599 0.239,3.99399 0.40598,5.987c-13.10199,-14.99501 -30.43999,-25.76602 -44.812,-39.541c0.07402,-1.24002 0.104,-2.47301 0.168,-3.713zm44.082,-38.33261c-0.041,1.79201 -0.062,3.592 -0.09,5.38901c-2.677,-2.214 -6.01401,-3.82101 -9.21701,-5.29202c3.10301,0.01402 6.205,-0.002 9.30699,-0.09698l0.00002,0zm-12.017,0.06799c0.015,0.009 0.01201,0.026 0.028,0.035c4.14101,2.17 7.907,4.723 11.868,7.147c-0.01599,1.009 -0.03299,2.016 -0.05098,3.02399c-1.05499,-0.453 -2.32701,-1.34 -2.83502,-1.63c-2.028,-1.15601 -3.97699,-2.459 -5.92099,-3.75201c-2.36699,-1.575 -4.68001,-3.228 -7.004,-4.86501c1.30499,0.02299 2.61099,0.02599 3.91499,0.04099l0,0.00002l0,0.00002l0,0.00001zm-14.24001,-0.31599c0.02299,0.03 -0.01599,0.073 0.02701,0.09499c4.79799,2.439 9.17998,5.647 13.515,8.815c3.694,2.6996 7.399,6.2686 11.661,8.0336c0.507,0.21 0.959,-0.586 0.539,-0.92599c-7.334,-5.9416 -15.98,-11.98161 -24.604,-15.9706c2.343,0.085 4.686,0.118 7.02902,0.173c3.85399,2.70901 7.62801,5.53101 11.517,8.192c1.164,0.797 4.104,3.31561 6.37601,3.7476c-0.06499,4.085 -0.14899,8.16199 -0.20401,12.249c-8.64998,-9.807 -21.254,-18.6156 -32.62801,-24.6836c2.25699,0.101 4.51399,0.19 6.77199,0.275zm-7.119,-0.289c-0.14,0.087 -0.22101,0.253 -0.03499,0.358c12.493,7.072 21.99097,17.1446 32.799,26.3316c0.056,0.047 0.117,0.027 0.17601,0.056c-0.02501,2.089 -0.08601,4.17201 -0.104,6.262c-2.28299,-0.964 -5.37099,-4.139 -6.67299,-5.165c-4.302,-3.392 -8.50099,-6.91499 -12.68199,-10.45599c-6.67601,-5.653 -13.40601,-11.32861 -19.70401,-17.40459c-0.218,-0.21101 -0.547,0.117 -0.33299,0.33199c7.386,7.44801 15.34999,14.3796 23.23599,21.28661c3.811,3.339 7.64801,6.673 11.673,9.755c1.129,0.864 2.81998,2.513 4.467,3.049c-0.013,1.65601 -0.04799,3.31101 -0.054,4.96601c-1.306,-1.98201 -4.52399,-4.08601 -5.86699,-5.228c-4.19301,-3.564 -8.36101,-7.25201 -12.33301,-11.057c-8.629,-8.26701 -18.61099,-14.9696 -27.50302,-22.9476c-0.05698,-0.244 -0.08298,-0.493 -0.14299,-0.736c4.35899,0.19801 8.71899,0.40401 13.08,0.598l0,-0.00002l0,-0.00001l-0.00002,0zm14.78601,185.80958c-26.927,-30.29398 -50.80701,-64.896 -73.6553,-98.32097c-0.127,-0.18501 -0.298,-0.25499 -0.467,-0.31401c0.396,-0.16699 0.792,-0.334 1.188,-0.50099c0.063,-0.017 0.065,-0.07901 0.082,-0.12999c0.512,1.13498 1.458,1.47 2.812,1.05098c13.6073,16.94502 24.2993,36.01202 38.20631,52.70201c11.769,14.123 27.476,24.82401 36.028,41.49997c0.01601,0.03104 0.05098,0.03 0.06999,0.05704c-1.41199,1.32797 -2.78,2.69598 -4.26399,3.95596l-0.00002,0zm5.179,-4.806c-5.83302,-13.83301 -18.41101,-24.13196 -28.74002,-34.57396c-17.49599,-17.68802 -29.63799,-39.79001 -45.31831,-59.02301c1.798,0.017 3.594,0.086 5.385,0.246c0.24799,0.01601 0.493,0.06801 0.742,0.088c18.75529,33.381 48.07529,59.425 72.41029,88.638c-1.472,1.561 -2.93001,3.13699 -4.47899,4.625l0.00003,0l0,-0.00003zm5.31798,-5.495c-22.79103,-30.43799 -51.74001,-55.396 -72.2093,-87.646c1.8513,0.17798 3.6953,0.43898 5.5353,0.71698c7.564,15.45299 19.92101,27.65802 31.875,39.808c13.48001,13.7 26.323,28.062 38.347,43.05898c-1.17,1.36304 -2.32701,2.742 -3.54799,4.06201l0,0.00003l-0.00002,0zm4.50401,-5.15799c-21.79202,-27.63199 -53.15002,-50.849 -70.11503,-81.62201c1.656,0.26201 3.307,0.554 4.95499,0.845c20.285,27.80002 46.188,50.806 67.72099,77.595c-0.85199,1.06302 -1.685,2.14099 -2.56099,3.18204l0.00003,0l0,-0.00003zm3.45798,-4.29498c-20.81598,-26.80002 -46.04999,-49.70203 -67.189,-76.23401c1.41,0.25398 2.83501,0.52098 4.264,0.778c-0.12299,0.123 -0.16,0.31599 0.014,0.468c23.89201,20.73999 38.229,54.75998 66.13403,70.60498c-1.08302,1.45401 -2.10301,2.961 -3.22302,4.383l0,0.00003zm4,-5.44402c-26.40999,-19.205 -40.88698,-49.55801 -66.21398,-69.88501c2.592,0.45702 5.207,0.84401 7.821,1.032c20.684,21.401 39.43198,44.72 60.743,65.49101c-0.79001,1.11499 -1.541,2.26201 -2.35002,3.362l0.00003,0l-0.00003,0zm3.224,-4.61401c-20.09398,-21.36899 -39.118,-43.96198 -60.37699,-64.18799c1.874,0.08302 3.74599,0.082 5.605,-0.14299c0.487,-0.05902 0.81601,-0.28102 1.052,-0.55902c9.75899,11.024 18.93999,22.54602 28.59401,33.66301c8.14798,9.38301 17.32799,20.175 28.601,26.08099c-1.155,1.71802 -2.289,3.452 -3.47502,5.146zm4.42102,-6.55199c-22.614,-16.49199 -37.87401,-39.75 -57.78302,-59.063c0.03401,-0.21599 0.03,-0.43799 -0.01999,-0.65401c0.634,0.02301 1.28601,-0.33098 1.20201,-1.07298c-0.203,-1.799 -0.358,-3.60701 -0.474,-5.422c17.84798,22.24298 38.534,42.554 59.293,62.02098c0.116,0.10901 0.24199,0.12102 0.36499,0.14c-0.87001,1.345 -1.69699,2.71602 -2.58299,4.05101zm3.20398,-5.026c-0.02399,-0.03499 -0.00998,-0.073 -0.04198,-0.108c-19.925,-21.10599 -41.13803,-40.765 -60.30502,-62.601c-0.12801,-2.46599 -0.16698,-4.948 -0.17102,-7.43701c19.787,23.05301 44.29901,41.44101 63.96101,64.67801c-1.14801,1.82301 -2.276,3.65501 -3.44302,5.468l0.00003,0l0,0.00002l0,-0.00002zm4.30702,-6.83899c-18.71402,-24.272 -44.287,-42.09802 -64.82703,-64.72101c0.01001,-1.69499 0.048,-3.395 0.10001,-5.097c14.343,11.36301 26.07402,25.37999 39.31703,37.99799c7.25499,6.91101 15.46399,12.71002 22.77298,19.569c1.17001,1.099 2.231,2.36 3.328,3.528c0.944,1.00801 1.88399,2.022 2.81699,3.04202c-1.17499,1.894 -2.32001,3.78699 -3.508,5.681l0.00002,0zm4.778,-7.73602c-5.931,-10.19899 -20.74202,-18.26398 -28.83502,-25.43799c-13.92,-12.34001 -25.45499,-26.90102 -40.631,-37.68999c0.09099,-2.638 0.22899,-5.28401 0.38199,-7.93402c18.11801,27.224 46.06,47.04604 72.12901,66.13002c-1.01901,1.64499 -2.028,3.28598 -3.045,4.93198l0.00002,0l0,0.00002l0,-0.00002zm5.819,-9.42598c-0.61801,1.01898 -1.261,2.041 -1.89102,3.06198c-25.70499,-19.98398 -53.86,-39.058 -72.87999,-65.985c-0.01599,-0.02199 -0.03998,-0.019 -0.058,-0.03699c0.09099,-1.51199 0.19301,-3.026 0.29201,-4.53999c14.177,14.425 29.29701,27.87898 44.386,41.33499c9.09001,8.10701 19.03401,20.862 30.25201,25.875c0.02199,0.01201 0.03998,-0.00299 0.062,0.00499c-0.05098,0.09201 -0.108,0.19702 -0.16298,0.28502l-0.00003,0zm0.754,-1.30402c-0.01601,-0.01399 -0.013,-0.03398 -0.03101,-0.04698c-11.97299,-8.67502 -22.54501,-20.06201 -33.688,-29.802c-13.87598,-12.127 -27.52101,-24.50803 -41.28099,-36.765c-0.08899,-0.07901 -0.17899,-0.03102 -0.26201,0.00699c0.19101,-2.903 0.38199,-5.80501 0.56299,-8.70699c13.62802,14.96199 31.25201,25.68999 45.069,40.556c0.08601,0.95299 0.14302,1.90799 0.237,2.86c0.048,0.48598 0.27101,0.84998 0.563,1.12099c-0.18402,0.78 0.19498,1.722 1.14499,1.608c0.871,-0.10501 1.74199,-0.17299 2.61299,-0.26599c9.134,7.71199 18.21298,16.56099 28.62199,22.45799c-1.26701,2.60901 -2.455,5.02501 -3.55,6.97701l0,-0.00002l0.00003,0l0.00002,0zm4.03999,-7.983c-5.86099,-4.03299 -11.49899,-8.308 -17,-12.84799c-3.55,-2.93001 -7.15701,-6.155 -11.082,-8.70702c2.15401,-0.21498 4.31099,-0.32399 6.46501,-0.47598c6.64699,7.54599 14.51099,13.96399 22.737,19.72499c-0.37701,0.776 -0.75499,1.55301 -1.12001,2.306zm1.65602,-3.401c-7.78201,-5.93799 -15.554,-11.74898 -22.49101,-18.68799c2.379,-0.16002 4.75998,-0.28801 7.14299,-0.40001c4.97899,5.66701 11.463,10.06 17.92801,13.993c-0.88901,1.692 -1.75101,3.40701 -2.57999,5.095zm3.22899,-6.30899c-5.931,-4.211 -12.30101,-7.59401 -17.44801,-12.83899c1.94601,-0.08502 3.89601,-0.13103 5.84802,-0.17801c2.29601,2.39499 4.618,4.75099 7.159,6.89299c1.66301,1.40201 3.59,2.99002 5.67601,3.93802c-0.41501,0.72598 -0.834,1.43898 -1.235,2.18596l0,0.00003l-0.00002,0zm2.06598,-3.65999c-2.14401,-1.31201 -4.34001,-2.49501 -6.358,-4.095c-2.09,-1.655 -4.049,-3.47101 -5.987,-5.30301c0.30502,-0.00601 0.60899,-0.02301 0.914,-0.028c1.85599,-0.03 3.806,0.04599 5.77899,0.138c2.319,2.25801 4.894,4.45099 7.59601,6.21701c-0.65901,0.98297 -1.31099,2.002 -1.944,3.071zm2.974,-4.53302c-2.14,-1.595 -4.36502,-3.08302 -6.53102,-4.65898c3.608,0.17198 7.26901,0.30899 10.72401,-0.08702c-1.45201,1.24699 -2.845,2.89102 -4.19299,4.746z"/>
     </g>
    </g>
    <g transform="matrix(0.828835 0 0 0.828835 0 0)" id="svg_8"/>
    <g transform="matrix(0.828835 0 0 0.828835 0 0)" id="svg_9"/>
    <g transform="matrix(0.828835 0 0 0.828835 0 0)" id="svg_10"/>
    <g transform="matrix(0.828835 0 0 0.828835 0 0)" id="svg_11"/>
    <g transform="matrix(0.828835 0 0 0.828835 0 0)" id="svg_12"/>
    <g transform="matrix(0.828835 0 0 0.828835 0 0)" id="svg_13"/>
    <g transform="matrix(0.828835 0 0 0.828835 0 0)" id="svg_14"/>
    <g transform="matrix(0.828835 0 0 0.828835 0 0)" id="svg_15"/>
    <g transform="matrix(0.828835 0 0 0.828835 0 0)" id="svg_16"/>
    <g transform="matrix(0.828835 0 0 0.828835 0 0)" id="svg_17"/>
    <g transform="matrix(0.828835 0 0 0.828835 0 0)" id="svg_18"/>
    <g transform="matrix(0.828835 0 0 0.828835 0 0)" id="svg_19"/>
    <g transform="matrix(0.828835 0 0 0.828835 0 0)" id="svg_20"/>
    <g transform="matrix(0.828835 0 0 0.828835 0 0)" id="svg_21"/>
    <g transform="matrix(0.828835 0 0 0.828835 0 0)" id="svg_22"/>
   </g>
  </a>
 </g>
</svg>